<svg xmlns="http://www.w3.org/2000/svg" width="861" height="116" viewBox="0 0 861 116">
  <defs>
    <style>
      .cls-1 {
        fill-rule: evenodd;
      }
    </style>
  </defs>
  <path id="Move_and_Groove" data-name="Move and Groove" class="cls-1" d="M65.654,9H53.172L37.94,84H37.6L22.713,9H10.225l-10.5,107h13.5l5.619-68.447H19.27L33.068,116h8.986L56.634,47.553h0.337L62.4,116H75.732Zm46.36,32.334A21.451,21.451,0,0,0,95.3,48.9q-6.72,7.558-6.719,30.822,0,18.981,5.879,28.135t18.057,9.154a20.97,20.97,0,0,0,16.419-7.643q6.676-7.641,6.676-29.142,0-22.928-6.383-30.906a20.549,20.549,0,0,0-16.88-7.979h-0.336Zm7.222,59.5q-1.763,5-6.886,5-4.788,0-6.845-4.955t-2.058-27.211q0-11.421,1.848-16.209a6.832,6.832,0,0,1,6.887-4.787q5.29,0,7.054,6.131T121,83.666Q121,95.844,119.236,100.841ZM166.268,116h9.238l19.988-73.4h-13.4L170.77,94.711,159.465,42.6h-13.69ZM252.1,76.443q0-21.331-6.425-28.135a20.455,20.455,0,0,0-15.411-6.8q-23.684,0-23.684,39.389,0,36.113,22.844,36.114,21.246,0,21.836-25.783H238.746q-0.084,7.559-1.764,11.086t-6.382,3.527q-6.132,0-7.769-6.089t-1.638-18.015H252.1V76.443Zm-30.907-5.375q0-10.413,1.722-15.411t7.181-5q4.617,0,6.383,4.745t1.763,15.663H221.193ZM345.91,42.6H332.137V50.66h-0.419a26.181,26.181,0,0,0-5.906-6.971,12.254,12.254,0,0,0-7.58-2.184q-9.968,0-14.073,9.112t-4.1,29.772q0,23.264,5.444,29.94t12.565,6.677q8.376,0,13.654-9.91h0.419V116H345.91V42.6ZM316.458,98.489q-1.539-6.508-1.538-22.046,0-13.184,1.954-18.225T323.9,53.18q5.073,0,6.653,5.417t1.582,18.686q0,15.117-1.747,21.416T323.4,105Q318,105,316.458,98.489Zm47.425-56.144V116h13.773V62.67q0-5.039,2.31-7.936a7.576,7.576,0,0,1,6.257-2.9q8.567,0,8.566,10.834V116H408.4V58.723q0-17.385-15.957-17.385-8.988,0-14.278,8.063h-0.336V42.346H363.883ZM458.2,51.164h-0.336q-4.956-9.826-13.605-9.826A15.028,15.028,0,0,0,433.338,45.5q-4.284,4.157-5.8,11.59t-1.512,24.649q0,15.117,1.764,21.584a18.831,18.831,0,0,0,6.257,10.078,15.394,15.394,0,0,0,9.868,3.612q9.153,0,14.109-10.834h0.336V116h13.522V5.225H458.2V51.164Zm-1.805,47.829q-1.976,6.342-7.013,6.341-5.124,0-6.929-6.089t-1.805-20.366q0-13.773,1.931-19.736t7.139-5.963q5.207,0,6.929,5.669t1.721,19.274Q458.365,92.654,456.392,98.993ZM577.119,60.066H549.74v12.6h13.1q0,14.446-1.092,20.45t-3.947,9.2q-2.856,3.192-8.063,3.191a11.684,11.684,0,0,1-4.829-.924,9.912,9.912,0,0,1-3.9-3.611,16.366,16.366,0,0,1-2.436-7.223q-0.588-4.535-1.259-14.319t-0.672-20.534V53.432q0-18.56,3.065-26.581t10.876-8.02q10.161,0,11.842,15.453l13.605-4.955a22.225,22.225,0,0,0-8.062-16.083A26.292,26.292,0,0,0,550.58,7.156a30.886,30.886,0,0,0-12.43,2.31,21.258,21.258,0,0,0-8.734,6.971A30.093,30.093,0,0,0,524.5,26.515q-1.47,5.417-2.226,20.66t-0.756,18.771q0,29.982,6.383,40.523t20.66,10.54q15.957,0,22.256-10.2t6.3-28.681V60.066Zm47.115-18.393-0.923-.168q-10.248,0-16.293,11.926h-0.336V42.6H592.74V116h13.942V71.992q0-11.59,4.031-14.949t13.521-3.611V41.674Zm32.838-.336A21.453,21.453,0,0,0,640.359,48.9q-6.72,7.558-6.718,30.822,0,18.981,5.879,28.135t18.056,9.154A20.967,20.967,0,0,0,674,109.365q6.677-7.641,6.677-29.142,0-22.928-6.383-30.906a20.552,20.552,0,0,0-16.881-7.979h-0.336Zm7.223,59.5q-1.764,5-6.887,5-4.787,0-6.845-4.955t-2.057-27.211q0-11.421,1.848-16.209a6.831,6.831,0,0,1,6.886-4.787q5.292,0,7.055,6.131t1.764,24.859Q666.059,95.844,664.3,100.841Zm55.6-59.5A21.45,21.45,0,0,0,703.18,48.9q-6.72,7.558-6.719,30.822,0,18.981,5.879,28.135t18.056,9.154a20.967,20.967,0,0,0,16.419-7.643q6.678-7.641,6.677-29.142,0-22.928-6.383-30.906a20.549,20.549,0,0,0-16.88-7.979h-0.336Zm7.222,59.5q-1.764,5-6.886,5-4.788,0-6.845-4.955t-2.058-27.211q0-11.421,1.848-16.209a6.832,6.832,0,0,1,6.887-4.787q5.29,0,7.054,6.131t1.764,24.859Q728.879,95.844,727.115,100.841ZM774.146,116h9.239l19.988-73.4H789.968L778.649,94.711,767.344,42.6h-13.69Zm85.833-39.557q0-21.331-6.425-28.135a20.455,20.455,0,0,0-15.411-6.8q-23.683,0-23.684,39.389,0,36.113,22.844,36.114,21.246,0,21.836-25.783H846.625q-0.084,7.559-1.764,11.086t-6.382,3.527q-6.132,0-7.769-6.089t-1.638-18.015h30.907V76.443Zm-30.907-5.375q0-10.413,1.722-15.411t7.181-5q4.617,0,6.382,4.745t1.764,15.663H829.072Z"/>
</svg>
