<?xml version="1.0" encoding="iso-8859-1"?>
<!-- Generator: Adobe Illustrator 18.1.1, SVG Export Plug-In . SVG Version: 6.00 Build 0)  -->
<svg version="1.1" id="Capa_1" xmlns="http://www.w3.org/2000/svg" xmlns:xlink="http://www.w3.org/1999/xlink" x="0px" y="0px"
	 viewBox="0 0 41.078 41.078" style="enable-background:new 0 0 41.078 41.078;" xml:space="preserve">
<g>
	<g>
		<g>
			<path style="fill:#010002;" d="M23.018,34.206L18.64,21.067h-4.253l-2.742-10.28l-2.511,10.28H6.258
				c5.448,8.125,15.779,17.029,15.779,17.029s10.247-8.904,15.653-17.029H26.811L23.018,34.206z"/>
			<path style="fill:#010002;" d="M32.313,3.022c-3.518-0.374-9.342,1.785-10.352,7.426c-1.013-5.641-6.832-7.8-10.347-7.426
				c-4.304,0.46-9.979,2.356-8.541,11.17c0.286,1.749,1.211,3.744,2.498,5.818H8.3l3.297-13.491l3.599,13.491h4.203l3.544,10.637
				l3.072-10.637h12.019v0.529c1.452-2.265,2.506-4.452,2.815-6.348C42.291,5.378,36.609,3.482,32.313,3.022z"/>
			<path style="fill:#010002;" d="M38.034,21.067V20.54c-0.11,0.175-0.229,0.352-0.345,0.527H38.034z"/>
			<path style="fill:#010002;" d="M0,20.01v1.057h6.257c-0.236-0.353-0.465-0.706-0.685-1.057H0z"/>
		</g>
	</g>
</g>
<g>
</g>
<g>
</g>
<g>
</g>
<g>
</g>
<g>
</g>
<g>
</g>
<g>
</g>
<g>
</g>
<g>
</g>
<g>
</g>
<g>
</g>
<g>
</g>
<g>
</g>
<g>
</g>
<g>
</g>
</svg>
