<?xml version="1.0" encoding="iso-8859-1"?>
<!-- Generator: Adobe Illustrator 16.0.0, SVG Export Plug-In . SVG Version: 6.00 Build 0)  -->
<!DOCTYPE svg PUBLIC "-//W3C//DTD SVG 1.1//EN" "http://www.w3.org/Graphics/SVG/1.1/DTD/svg11.dtd">
<svg version="1.1" id="Capa_1" xmlns="http://www.w3.org/2000/svg" xmlns:xlink="http://www.w3.org/1999/xlink" x="0px" y="0px"
	 width="385.423px" height="385.423px" viewBox="0 0 385.423 385.423" style="enable-background:new 0 0 385.423 385.423;"
	 xml:space="preserve">
<g>
	<path d="M286.783,183.347c22.268-15.557,40.408-35.458,51.077-56.04c12.368-23.859,13.582-46.727,3.415-64.39
		c-8.314-14.445-21.493-23.606-37.109-25.797c-7.682-1.077-15.715-0.473-23.682,1.639V12.022c0-6.64-5.384-12.022-12.022-12.022
		h-151.5c-6.64,0-12.022,5.383-12.022,12.022v26.735c-7.965-2.111-15.998-2.715-23.681-1.637
		c-15.617,2.19-28.796,11.352-37.111,25.797c-10.167,17.664-8.954,40.531,3.415,64.39c10.669,20.581,28.809,40.483,51.077,56.039
		c4.743,3.314,5.281,6.87,4.896,9.271c-0.436,2.72-2.175,4.917-4.43,5.595c-3.389,1.02-9.865-0.984-17.848-9.675
		c-5.754-6.264-15.498-6.677-21.763-0.922c-6.264,5.755-6.677,15.5-0.922,21.763c14.805,16.116,28.953,19.832,38.85,19.832
		c4.518,0,8.15-0.773,10.554-1.498c5.138-1.545,9.793-4.229,13.721-7.742c11.215,15.416,27.318,27.055,46.015,32.619v44.234h-37.388
		c-17.643,0-31.998,14.354-31.998,31.998v41.603c0,8.284,6.716,15,15,15h158.771c8.284,0,15-6.716,15-15V328.82
		c0-17.644-14.354-31.998-31.997-31.998h-37.39v-44.234c18.695-5.564,34.799-17.203,46.015-32.619
		c3.929,3.514,8.583,6.197,13.722,7.742c2.404,0.723,6.035,1.498,10.554,1.498c9.897-0.001,24.046-3.718,38.85-19.832
		c5.755-6.266,5.342-16.008-0.922-21.763c-6.264-5.755-16.008-5.342-21.763,0.922c-7.984,8.69-14.456,10.692-17.849,9.675
		c-2.256-0.678-3.995-2.875-4.431-5.595C281.502,190.216,282.04,186.66,286.783,183.347z M257.096,328.82v26.603H128.325V328.82
		c0-1.102,0.896-1.998,1.998-1.998h124.776C256.2,326.822,257.096,327.719,257.096,328.82z M74.911,113.129
		c-4.27-8.235-10.473-23.711-4.065-34.845c3.623-6.293,8.428-9.779,14.691-10.657c5.849-0.818,12.695,0.661,19.402,3.945v77.755
		C92.024,138.359,81.393,125.631,74.911,113.129z M280.483,149.328V71.57c6.706-3.286,13.553-4.766,19.401-3.943
		c6.264,0.878,11.068,4.364,14.689,10.657c6.409,11.134,0.205,26.61-4.064,34.845C304.029,125.631,293.398,138.359,280.483,149.328z
		"/>
</g>
<g>
</g>
<g>
</g>
<g>
</g>
<g>
</g>
<g>
</g>
<g>
</g>
<g>
</g>
<g>
</g>
<g>
</g>
<g>
</g>
<g>
</g>
<g>
</g>
<g>
</g>
<g>
</g>
<g>
</g>
</svg>
